HIERARCHY
ROOT Hips
{
	OFFSET 0.000000 1.471914 24.280096
	CHANNELS 6 Xposition Yposition Zposition Xrotation Yrotation Zrotation
	JOINT Spine
	{
		OFFSET 0.000000 0.900110 1.860670
		CHANNELS 6 Xposition Yposition Zposition Xrotation Yrotation Zrotation
		JOINT Spine1
		{
			OFFSET 0.000000 0.400320 2.270309
			CHANNELS 6 Xposition Yposition Zposition Xrotation Yrotation Zrotation
			JOINT Spine2
			{
				OFFSET 0.000000 0.200920 2.296560
				CHANNELS 6 Xposition Yposition Zposition Xrotation Yrotation Zrotation
				JOINT Spine3
				{
					OFFSET 0.000000 0.000000 2.305330
					CHANNELS 6 Xposition Yposition Zposition Xrotation Yrotation Zrotation
					JOINT Neck
					{
						OFFSET 0.000000 -0.864490 6.051487
						CHANNELS 6 Xposition Yposition Zposition Xrotation Yrotation Zrotation
						JOINT Head
						{
							OFFSET 0.000000 -0.550429 3.121674
							CHANNELS 6 Xposition Yposition Zposition Xrotation Yrotation Zrotation
							End Site
							{
								OFFSET 0.000000 0.000000 3.731750
							}
						}
					}
					JOINT RightShoulder
					{
						OFFSET -0.788280 -1.313800 4.256718
						CHANNELS 6 Xposition Yposition Zposition Xrotation Yrotation Zrotation
						JOINT RightArm
						{
							OFFSET -3.915130 0.000000 0.000000
							CHANNELS 6 Xposition Yposition Zposition Xrotation Yrotation Zrotation
							JOINT RightForeArm
							{
								OFFSET -6.914910 0.000000 0.000000
								CHANNELS 6 Xposition Yposition Zposition Xrotation Yrotation Zrotation
								JOINT RightHand
								{
									OFFSET -6.096219 0.000000 0.000000
									CHANNELS 6 Xposition Yposition Zposition Xrotation Yrotation Zrotation
									JOINT RightHandEnd
									{
										OFFSET -1.749950 0.000000 0.000000
										CHANNELS 6 Xposition Yposition Zposition Xrotation Yrotation Zrotation
										End Site
										{
											OFFSET -1.749950 0.000000 0.000000
										}
									}
									JOINT RightHandThumb1
									{
										OFFSET -0.699980 -1.166630 -0.466648
										CHANNELS 6 Xposition Yposition Zposition Xrotation Yrotation Zrotation
										End Site
										{
											OFFSET -1.690319 -0.452920 0.000000
										}
									}
								}
							}
						}
					}
					JOINT LeftShoulder
					{
						OFFSET 0.788280 -1.313800 4.256718
						CHANNELS 6 Xposition Yposition Zposition Xrotation Yrotation Zrotation
						JOINT LeftArm
						{
							OFFSET 3.915130 0.000000 0.000000
							CHANNELS 6 Xposition Yposition Zposition Xrotation Yrotation Zrotation
							JOINT LeftForeArm
							{
								OFFSET 6.914910 0.000000 0.000000
								CHANNELS 6 Xposition Yposition Zposition Xrotation Yrotation Zrotation
								JOINT LeftHand
								{
									OFFSET 6.096219 0.000000 0.000000
									CHANNELS 6 Xposition Yposition Zposition Xrotation Yrotation Zrotation
									JOINT LeftHandEnd
									{
										OFFSET 1.749950 0.000000 0.000000
										CHANNELS 6 Xposition Yposition Zposition Xrotation Yrotation Zrotation
										End Site
										{
											OFFSET 1.749950 0.000000 0.000000
										}
									}
									JOINT LeftHandThumb1
									{
										OFFSET 0.699980 -1.166630 -0.466648
										CHANNELS 6 Xposition Yposition Zposition Xrotation Yrotation Zrotation
										End Site
										{
											OFFSET 1.690319 -0.452920 0.000000
										}
									}
								}
							}
						}
					}
				}
			}
		}
	}
	JOINT RightUpLeg
	{
		OFFSET -2.338570 -0.252550 -0.551512
		CHANNELS 6 Xposition Yposition Zposition Xrotation Yrotation Zrotation
		JOINT RightLeg
		{
			OFFSET 0.000000 0.000000 -10.744959
			CHANNELS 6 Xposition Yposition Zposition Xrotation Yrotation Zrotation
			JOINT RightFoot
			{
				OFFSET 0.000000 -0.000001 -10.930849
				CHANNELS 6 Xposition Yposition Zposition Xrotation Yrotation Zrotation
				JOINT RightToeBase
				{
					OFFSET 0.000000 -4.087269 -1.487650
					CHANNELS 6 Xposition Yposition Zposition Xrotation Yrotation Zrotation
					End Site
					{
						OFFSET 0.000000 -1.891870 0.000000
					}
				}
			}
		}
	}
	JOINT LeftUpLeg
	{
		OFFSET 2.338570 -0.252550 -0.551512
		CHANNELS 6 Xposition Yposition Zposition Xrotation Yrotation Zrotation
		JOINT LeftLeg
		{
			OFFSET 0.000000 0.000000 -10.744959
			CHANNELS 6 Xposition Yposition Zposition Xrotation Yrotation Zrotation
			JOINT LeftFoot
			{
				OFFSET 0.000000 -0.000001 -10.930849
				CHANNELS 6 Xposition Yposition Zposition Xrotation Yrotation Zrotation
				JOINT LeftToeBase
				{
					OFFSET 0.000000 -4.087269 -1.487650
					CHANNELS 6 Xposition Yposition Zposition Xrotation Yrotation Zrotation
					End Site
					{
						OFFSET 0.000000 -1.891870 0.000000
					}
				}
			}
		}
	}
}
MOTION
Frames: 5
Frame Time: 0.041667
-0.000063 26.558918 40.228485 -15.759060 7.159081 -13.036736 -0.000005 0.900102 1.860698 31.164265 -5.813635 -1.534135 -0.000002 0.400307 2.270304 -0.000005 -0.000001 0.000005 0.000014 0.200930 2.296541 0.000001 -0.000001 -0.000001 -0.000000 -0.000020 2.305327 0.000008 0.000003 -1.858017 -0.000007 -0.864450 6.051515 -1.778827 -0.440508 -176.901421 0.000009 -0.550434 3.121693 0.000001 0.000000 0.000000 -0.788287 -1.313768 4.256765 -127.599381 54.617707 -53.291888 -3.915119 -0.000021 -0.000011 -0.000000 -0.000000 -0.000002 -6.914865 0.000008 0.000004 0.000010 -0.000004 -23.137098 -6.096205 -0.000003 0.000019 -0.000026 -0.000037 -0.000061 -1.749946 0.000016 -0.000015 0.000002 -0.000002 0.000002 -0.699995 -1.166616 -0.466634 0.000006 0.000001 -0.000007 0.788255 -1.313799 4.256732 -122.287201 -56.268874 57.652486 3.915160 -0.000008 0.000026 -0.000001 -0.000001 -0.000001 6.914890 -0.000008 -0.000015 0.000009 -0.000003 22.492781 6.096237 0.000035 0.000013 -0.000019 0.000044 0.000038 1.749936 0.000024 -0.000007 -0.000009 -0.000005 -0.000001 0.699992 -1.166624 -0.466661 -0.000003 -0.000002 -0.000013 -2.338574 -0.252552 -0.551513 28.396228 -5.166249 -1.405527 0.000006 -0.000005 -10.744959 5.543419 2.262455 -0.748384 -0.000007 -0.000002 -10.930866 -0.000009 -0.000002 0.000001 0.000012 -4.087261 -1.487642 0.000005 0.000001 0.000001 2.338566 -0.252553 -0.551454 28.001600 -1.993161 -1.383769 0.000001 -0.000007 -10.744926 5.260172 1.009483 -0.421449 0.000006 0.000005 -10.930862 0.000002 -0.000003 0.000000 -0.000010 -4.087245 -1.487654 -0.000001 -0.000002 -0.000003 
-0.000058 26.558918 40.228485 -15.542912 7.252223 -13.389490 -0.000005 0.900097 1.860696 31.085970 -5.692546 -1.513857 -0.000003 0.400301 2.270304 -0.000004 -0.000000 0.000006 0.000014 0.200933 2.296549 0.000001 -0.000001 0.000001 0.000001 -0.000013 2.305331 0.000007 0.000001 -1.869565 -0.000006 -0.864456 6.051504 -1.968726 -0.402998 -176.569802 0.000008 -0.550431 3.121700 0.000002 0.000000 -0.000001 -0.788286 -1.313773 4.256758 -127.308757 55.070743 -53.427574 -3.915123 -0.000019 -0.000008 -0.000001 -0.000000 -0.000004 -6.914873 0.000008 0.000004 0.000010 -0.000001 -22.591819 -6.096201 -0.000004 0.000022 -0.000030 -0.000039 -0.000058 -1.749942 0.000018 -0.000012 0.000001 -0.000001 0.000000 -0.699993 -1.166613 -0.466641 0.000008 0.000001 -0.000008 0.788257 -1.313801 4.256726 -121.847132 -55.630668 57.849933 3.915155 -0.000005 0.000023 -0.000005 -0.000001 0.000002 6.914893 -0.000003 -0.000011 0.000004 -0.000001 22.608467 6.096223 0.000039 0.000013 -0.000025 0.000043 0.000038 1.749930 0.000021 -0.000010 -0.000001 -0.000002 0.000001 0.699989 -1.166625 -0.466664 -0.000004 -0.000001 -0.000014 -2.338574 -0.252550 -0.551519 28.055818 -5.314908 -1.375728 0.000006 -0.000005 -10.744960 5.739200 2.622782 -0.787314 -0.000006 -0.000003 -10.930865 -0.000005 -0.000002 0.000003 0.000014 -4.087266 -1.487644 0.000004 0.000001 -0.000001 2.338567 -0.252552 -0.551458 27.811417 -2.168685 -1.360813 0.000002 -0.000009 -10.744925 5.052270 1.107025 -0.418278 0.000007 0.000012 -10.930862 0.000002 -0.000004 0.000000 -0.000012 -4.087235 -1.487649 -0.000008 -0.000002 -0.000003 
-0.000063 26.558922 40.228493 -15.091890 7.088435 -13.822256 -0.000005 0.900100 1.860705 30.758008 -5.511580 -1.563266 -0.000003 0.400303 2.270310 -0.000004 -0.000001 0.000004 0.000014 0.200930 2.296541 0.000002 -0.000001 0.000001 0.000000 -0.000014 2.305331 0.000003 0.000002 -2.022179 -0.000005 -0.864444 6.051513 -2.063562 -0.275236 -176.710149 0.000009 -0.550431 3.121693 0.000000 0.000000 0.000001 -0.788284 -1.313759 4.256767 -126.994554 54.919963 -53.277139 -3.915114 -0.000021 -0.000012 -0.000000 -0.000000 -0.000002 -6.914867 0.000008 0.000008 0.000010 -0.000001 -22.829620 -6.096199 -0.000006 0.000022 -0.000030 -0.000037 -0.000061 -1.749945 0.000016 -0.000012 -0.000003 -0.000001 0.000000 -0.699999 -1.166614 -0.466642 0.000006 0.000000 -0.000005 0.788259 -1.313792 4.256735 -122.159190 -56.186683 57.291395 3.915156 -0.000006 0.000015 0.000004 -0.000000 0.000002 6.914893 -0.000003 -0.000015 0.000003 -0.000004 22.191143 6.096230 0.000036 0.000014 -0.000024 0.000044 0.000036 1.749933 0.000024 -0.000010 -0.000004 -0.000003 0.000001 0.699985 -1.166622 -0.466668 -0.000001 -0.000000 -0.000014 -2.338574 -0.252548 -0.551514 27.419427 -4.981039 -1.403835 0.000008 -0.000006 -10.744961 5.703333 2.316900 -0.761868 -0.000008 -0.000012 -10.930865 -0.000009 -0.000002 0.000005 0.000012 -4.087268 -1.487641 0.000004 0.000001 0.000000 2.338566 -0.252552 -0.551444 27.316170 -1.803337 -1.395183 0.000000 -0.000005 -10.744928 5.203899 0.991114 -0.408711 0.000007 0.000002 -10.930861 0.000000 -0.000004 -0.000000 -0.000009 -4.087242 -1.487652 -0.000000 -0.000003 -0.000005 
-0.000056 26.558924 40.228497 -14.660661 7.325375 -14.164550 -0.000004 0.900096 1.860702 30.571944 -5.689220 -1.379390 -0.000002 0.400301 2.270308 -0.000004 -0.000001 0.000004 0.000014 0.200937 2.296549 0.000001 -0.000001 -0.000001 0.000001 -0.000015 2.305327 0.000009 0.000006 -1.930048 -0.000007 -0.864444 6.051501 -2.023760 -0.643071 -176.864443 0.000009 -0.550430 3.121689 0.000000 -0.000000 -0.000000 -0.788287 -1.313761 4.256757 -127.451098 54.855264 -52.585049 -3.915117 -0.000014 -0.000011 -0.000001 -0.000000 -0.000001 -6.914874 0.000011 0.000008 0.000010 -0.000002 -23.060810 -6.096196 -0.000005 0.000027 -0.000030 -0.000038 -0.000058 -1.749951 0.000015 -0.000016 0.000004 0.000004 0.000001 -0.699996 -1.166616 -0.466646 0.000008 0.000004 -0.000005 0.788254 -1.313793 4.256726 -123.477703 -57.966306 55.974927 3.915157 -0.000004 0.000015 -0.000001 0.000000 0.000002 6.914888 -0.000006 -0.000015 0.000006 -0.000003 21.961532 6.096233 0.000037 0.000012 -0.000020 0.000041 0.000038 1.749928 0.000023 -0.000007 -0.000000 -0.000003 0.000002 0.699984 -1.166623 -0.466665 0.000003 0.000000 -0.000012 -2.338573 -0.252554 -0.551511 26.914212 -5.183574 -1.224161 0.000007 -0.000008 -10.744956 5.728450 2.286650 -0.756315 -0.000007 0.000001 -10.930865 -0.000009 -0.000002 0.000004 0.000013 -4.087265 -1.487643 0.000005 0.000000 -0.000003 2.338567 -0.252555 -0.551446 26.823375 -1.966931 -1.217501 0.000002 -0.000005 -10.744927 5.182013 0.877278 -0.395396 0.000008 0.000002 -10.930862 0.000003 -0.000003 0.000001 -0.000011 -4.087238 -1.487649 -0.000008 -0.000002 -0.000003 
-0.000056 26.558924 40.228500 -14.414223 7.302962 -14.487815 -0.000004 0.900103 1.860698 30.330667 -5.598320 -1.352869 -0.000001 0.400307 2.270315 -0.000003 0.000000 0.000004 0.000014 0.200933 2.296543 0.000001 -0.000001 -0.000001 0.000001 -0.000016 2.305331 0.000008 0.000001 -1.931202 -0.000006 -0.864452 6.051505 -2.305100 -0.722251 -176.480887 0.000009 -0.550434 3.121696 0.000000 -0.000001 0.000005 -0.788285 -1.313770 4.256756 -128.635657 55.350695 -50.997833 -3.915115 -0.000019 -0.000011 -0.000000 0.000000 0.000000 -6.914874 0.000008 0.000004 0.000010 -0.000001 -23.396103 -6.096207 -0.000005 0.000022 -0.000030 -0.000037 -0.000061 -1.749945 0.000013 -0.000012 -0.000002 -0.000001 -0.000000 -0.699999 -1.166617 -0.466634 0.000003 0.000002 -0.000007 0.788255 -1.313803 4.256726 -125.279603 -59.487068 53.904533 3.915157 -0.000004 0.000015 -0.000000 0.000000 0.000002 6.914895 -0.000012 -0.000007 0.000011 -0.000003 21.840619 6.096235 0.000039 0.000012 -0.000019 0.000038 0.000037 1.749929 0.000025 -0.000007 -0.000002 -0.000003 -0.000000 0.699986 -1.166623 -0.466665 0.000003 0.000001 -0.000014 -2.338573 -0.252548 -0.551515 26.493044 -4.925145 -1.191240 0.000006 -0.000005 -10.744958 5.751049 2.072162 -0.731453 -0.000008 -0.000005 -10.930864 -0.000007 -0.000002 0.000005 0.000013 -4.087268 -1.487642 0.000005 -0.000000 -0.000002 2.338567 -0.252553 -0.551453 26.534127 -1.777672 -1.190701 0.000001 -0.000007 -10.744929 5.010579 0.543158 -0.363924 0.000007 0.000002 -10.930861 0.000003 -0.000003 0.000001 -0.000010 -4.087238 -1.487650 -0.000007 -0.000002 -0.000001 
